HIERARCHY
ROOT SpineBase
{
  OFFSET 0.000000 0.000000 0.000000
  CHANNELS 6 Xposition Yposition Zposition Zrotation Xrotation Yrotation
  JOINT SpineMid
  {
    OFFSET 0.000000 27.763795 0.000000
    CHANNELS 3 Zrotation Xrotation Yrotation
    JOINT SpineShoulder
    {
      OFFSET 0.008915 20.659572 -0.576672
      CHANNELS 3 Zrotation Xrotation Yrotation
      JOINT Neck
      {
        OFFSET 0.002368 6.863181 -0.445220
        CHANNELS 3 Zrotation Xrotation Yrotation
        JOINT Head
        {
          OFFSET 3.709542 12.982977 2.435256
          CHANNELS 3 Zrotation Xrotation Yrotation
          End Site
          {
            OFFSET 0 0 0
          }
        }
      }
      JOINT ShoulderLeft
      {
        OFFSET -10.283022 -3.259927 -8.875951
        CHANNELS 3 Zrotation Xrotation Yrotation
        JOINT ElbowLeft
        {
          OFFSET -7.203475 -18.264784 -3.183557
          CHANNELS 3 Zrotation Xrotation Yrotation
          JOINT WristLeft
          {
            OFFSET 19.057946 -3.898876 -4.698341
            CHANNELS 3 Zrotation Xrotation Yrotation
            JOINT HandLeft
            {
              OFFSET 5.342512 0.203887 -1.301735
              CHANNELS 3 Zrotation Xrotation Yrotation
              JOINT HandTipLeft
              {
                OFFSET 5.384372 0.436133 -1.164680
                CHANNELS 3 Zrotation Xrotation Yrotation
                End Site
                {
                  OFFSET 0 0 0
                }
              }
              JOINT ThumbLeft
              {
                OFFSET 3.127605 0.820523 -0.063701
                CHANNELS 3 Zrotation Xrotation Yrotation
                End Site
                {
                  OFFSET 0 0 0
                }
              }
            }
          }
        }
      }
      JOINT ShoulderRight
      {
        OFFSET 11.886225 -4.365539 6.455299
        CHANNELS 3 Zrotation Xrotation Yrotation
        JOINT ElbowRight
        {
          OFFSET 2.916112 -23.775369 1.888957
          CHANNELS 3 Zrotation Xrotation Yrotation
          JOINT WristRight
          {
            OFFSET 1.285933 -22.743000 -4.049879
            CHANNELS 3 Zrotation Xrotation Yrotation
            JOINT HandRight
            {
              OFFSET 0.040619 -6.583867 -1.076585
              CHANNELS 3 Zrotation Xrotation Yrotation
              JOINT HandTipRight
              {
                OFFSET 0.209669 -5.943687 -0.092119
                CHANNELS 3 Zrotation Xrotation Yrotation
                End Site
                {
                  OFFSET 0 0 0
                }
              }
              JOINT ThumbRight
              {
                OFFSET 1.671922 -0.869012 -0.418012
                CHANNELS 3 Zrotation Xrotation Yrotation
                End Site
                {
                  OFFSET 0 0 0
                }
              }
            }
          }
        }
      }
    }
  }
  JOINT HipLeft
  {
    OFFSET -4.737392 1.206481 -5.888406
    CHANNELS 3 Zrotation Xrotation Yrotation
    JOINT KneeLeft
    {
      OFFSET -8.167307 -31.191676 -0.595421
      CHANNELS 3 Zrotation Xrotation Yrotation
      JOINT AnkleLeft
      {
        OFFSET -2.336683 -31.691403 7.304112
        CHANNELS 3 Zrotation Xrotation Yrotation
        JOINT FootLeft
        {
          OFFSET 3.355683 -6.952252 0.526230
          CHANNELS 3 Zrotation Xrotation Yrotation
          End Site
          {
            OFFSET 0 0 0
          }
        }
      }
    }
  }
  JOINT HipRight
  {
    OFFSET 4.382063 0.301988 0.218273
    CHANNELS 3 Zrotation Xrotation Yrotation
    JOINT KneeRight
    {
      OFFSET -4.644775 -34.598607 2.902689
      CHANNELS 3 Zrotation Xrotation Yrotation
      JOINT AnkleRight
      {
        OFFSET -6.489769 -30.484802 6.138294
        CHANNELS 3 Zrotation Xrotation Yrotation
        JOINT FootRight
        {
          OFFSET -0.543408 -4.651241 -7.395281
          CHANNELS 3 Zrotation Xrotation Yrotation
          End Site
          {
            OFFSET 0 0 0
          }
        }
      }
    }
  }
}
MOTION
Frames: 8
Frame Time: 0.033333
21.985022 71.049539 354.551888 -0.000000 0.000000 -33.807530 -0.000000 0.000000 33.807530 -0.000000 0.000000 0.000000 -0.000000 0.000000 0.000000 0.000000 0.000000 0.000000 -0.000000 0.000000 0.000000 -0.000000 0.000000 0.000000 -0.000000 0.000000 0.000000 -0.000000 0.000000 0.000000 0.000000 0.000000 0.000000 0.000000 0.000000 0.000000 -0.000000 0.000000 0.000000 -0.000000 0.000000 0.000000 -0.000000 0.000000 0.000000 -0.000000 0.000000 0.000000 0.000000 0.000000 0.000000 0.000000 0.000000 0.000000 -0.000000 0.000000 33.807530 -0.000000 0.000000 0.000000 -0.000000 0.000000 0.000000 0.000000 0.000000 0.000000 -0.000000 0.000000 33.807530 -0.000000 0.000000 0.000000 -0.000000 0.000000 0.000000 0.000000 0.000000 0.000000
22.034071 71.049989 354.617248 0.052900 -0.039764 -33.647020 -0.066070 0.003791 33.647041 -0.000000 0.000000 0.000000 -0.000000 0.000000 0.000000 0.000000 0.000000 0.000000 -0.000000 0.000000 0.000000 -2.161114 -0.195802 1.814677 -0.874195 0.156594 -12.177544 6.436870 1.405039 22.433961 0.000000 0.000000 0.000000 0.000000 0.000000 0.000000 -0.000000 0.000000 0.000000 -0.000000 0.000000 0.000000 -0.000000 0.000000 0.000000 -1.021428 0.886486 0.055016 0.000000 0.000000 0.000000 0.000000 0.000000 0.000000 -0.066070 0.003791 33.647041 1.156634 -0.426249 0.302282 3.963229 10.451114 4.391676 0.000000 0.000000 0.000000 -0.066070 0.003791 33.647041 -0.000000 0.000000 0.000000 -0.237244 -2.693297 0.712810 0.000000 0.000000 0.000000
22.062100 71.057750 354.642780 0.080300 -0.035373 -33.586620 -0.086462 -0.014954 33.586634 -0.000000 0.000000 0.000000 -0.000000 0.000000 0.000000 0.000000 0.000000 0.000000 -0.000000 0.000000 0.000000 -3.863149 -0.378901 3.358393 -1.446494 0.775989 -22.350451 10.275133 3.842087 37.873040 0.000000 0.000000 0.000000 0.000000 0.000000 0.000000 -0.000000 0.000000 0.000000 0.349516 -1.046773 -0.118406 -0.512800 2.544040 0.164808 -1.736784 0.019075 0.025532 0.000000 0.000000 0.000000 0.000000 0.000000 0.000000 -0.086462 -0.014954 33.586634 1.938375 -0.703761 0.510499 7.694967 20.794937 7.989412 0.000000 0.000000 0.000000 -0.086462 -0.014954 33.586634 -0.000000 0.000000 0.000000 -0.399585 -5.308153 1.335213 0.000000 0.000000 0.000000
22.069110 71.072822 354.628483 0.082235 0.013157 -33.626484 -0.061188 -0.056495 33.626444 -0.000000 0.000000 0.000000 -0.000000 0.000000 0.000000 0.000000 0.000000 0.000000 -0.000000 0.000000 0.000000 -4.962870 -0.495750 4.518334 -1.583336 1.413244 -29.565732 12.112146 5.864044 47.596557 0.000000 0.000000 0.000000 0.000000 0.000000 0.000000 -0.000000 0.000000 0.000000 0.462709 -1.417814 -0.157151 -0.655007 3.508515 0.219252 -2.430522 -0.208306 0.015274 0.000000 0.000000 0.000000 0.000000 0.000000 0.000000 -0.061188 -0.056495 33.626444 2.399233 -0.856916 0.634055 10.640528 29.095252 10.424735 0.000000 0.000000 0.000000 -0.061188 -0.056495 33.626444 -0.000000 0.000000 0.000000 -0.484469 -7.748089 1.841278 0.000000 0.000000 0.000000
22.055099 71.095204 354.574358 0.058694 0.105891 -33.765570 0.010060 -0.120651 33.765526 -0.000000 0.000000 0.000000 -0.000000 0.000000 0.000000 0.000000 0.000000 0.000000 -0.000000 0.000000 0.000000 -5.375711 -0.504044 5.217461 -1.342455 1.720321 -33.415869 12.543662 6.866811 52.356411 0.000000 0.000000 0.000000 0.000000 0.000000 0.000000 -0.000000 0.000000 0.000000 0.535126 -1.687149 -0.183245 -0.720268 4.266085 0.251989 -2.999745 -0.598502 -0.008712 0.000000 0.000000 0.000000 0.000000 0.000000 0.000000 0.010060 -0.120651 33.765526 2.570445 -0.899243 0.678892 12.583751 34.213665 11.754703 0.000000 0.000000 0.000000 0.010060 -0.120651 33.765526 -0.000000 0.000000 0.000000 -0.493985 -9.916928 2.207183 0.000000 0.000000 0.000000
22.020069 71.124898 354.480404 0.009622 0.242970 -34.001667 0.127897 -0.206808 34.001877 -0.000000 0.000000 0.000000 -0.000000 0.000000 0.000000 0.000000 0.000000 0.000000 -0.000000 0.000000 0.000000 -5.087679 -0.386748 5.424139 -0.735823 1.547953 -33.679633 11.866840 6.632366 52.332204 0.000000 0.000000 0.000000 0.000000 0.000000 0.000000 -0.000000 0.000000 0.000000 0.566795 -1.854516 -0.197137 -0.708696 4.816831 0.261808 -3.440095 -1.153915 -0.044247 0.000000 0.000000 0.000000 0.000000 0.000000 0.000000 0.127897 -0.206808 34.001877 2.465104 -0.835837 0.647780 13.505077 35.895773 12.205455 0.000000 0.000000 0.000000 0.127897 -0.206808 34.001877 -0.000000 0.000000 0.000000 -0.434067 -11.728186 2.413314 0.000000 0.000000 0.000000
21.905088 71.179542 354.228991 -0.117777 0.504546 -34.613898 0.383539 -0.348334 34.615582 -0.000000 0.000000 0.000000 -0.000000 0.000000 0.000000 0.000000 0.000000 0.000000 -0.000000 0.000000 0.000000 -3.995592 -0.109637 5.159970 0.329309 0.782527 -28.074216 9.142176 3.930464 44.961377 0.000000 0.000000 0.000000 0.000000 0.000000 0.000000 -0.000000 0.000000 0.000000 0.560326 -2.021782 -0.204806 -0.901473 6.994101 0.332131 -3.579255 -4.958137 -0.344260 0.000000 0.000000 0.000000 0.000000 0.000000 0.000000 1.176737 -0.544900 34.771986 0.617072 0.601488 0.107835 13.867431 25.769708 9.609820 0.000000 0.000000 0.000000 0.383539 -0.348334 34.615582 -0.000000 0.000000 0.000000 0.515650 -17.567527 1.762232 0.000000 0.000000 0.000000
21.816199 71.226249 354.007193 -0.238346 0.789325 -35.077191 0.648687 -0.508976 35.081714 -0.000000 0.000000 0.000000 -0.000000 0.000000 0.000000 0.000000 0.000000 0.000000 -0.000000 0.000000 0.000000 -2.070847 0.315217 4.415713 2.778224 0.096666 -19.140692 2.623809 -0.077103 29.938009 0.000000 0.000000 0.000000 0.000000 0.000000 0.000000 -0.000000 0.000000 0.000000 0.568247 -1.950882 -0.202388 -0.733776 7.039023 0.287824 -3.639820 -6.343238 -0.410222 0.000000 0.000000 0.000000 0.000000 0.000000 0.000000 1.868273 -0.857152 35.339674 0.325016 0.891455 0.009956 10.813873 32.529368 12.817778 0.000000 0.000000 0.000000 0.648687 -0.508976 35.081714 -0.000000 0.000000 0.000000 -0.538799 -19.820464 4.289232 0.000000 0.000000 0.000000
